<svg width="1000" height="294" viewBox="0 0 1000 294" fill="none" xmlns="http://www.w3.org/2000/svg">
<g clip-path="url(#clip0_120_78)">
<path d="M293.33 293.33H0V0L293.33 293.33Z" fill="#FFD91E"/>
<path d="M0 293.33V0H293.33L0 293.33Z" fill="#2C5CA4"/>
<path d="M0 0L146.66 146.66L0 293.33V0Z" fill="#1DB8D4"/>
<path d="M146.66 146.66L170.89 170.89L0 293.33L146.66 146.66Z" fill="#F7C904"/>
<path d="M463.25 169.26L528.18 104.33H492.22L428.74 167.81V41.54H398.91V257.47H428.74V203.77L444.93 187.58L496.93 257.47H528.34L463.25 169.26Z" fill="#3E4252"/>
<path d="M595.86 41.54H565.74V257.47H595.86V41.54Z" fill="#3E4252"/>
<path d="M740.11 107.88C729.41 101.73 717.05 98.65 703.03 98.65C680.68 98.65 663.06 105.52 650.18 119.25C637.3 132.99 630.86 152.54 630.86 177.92C630.86 194.97 633.94 209.41 640.09 221.25C646.24 233.09 654.67 242.09 665.38 248.24C676.08 254.4 688.34 257.47 702.17 257.47C724.33 257.47 741.95 250.56 755.02 236.73C768.09 222.91 774.62 203.3 774.62 177.92C774.62 160.87 771.54 146.48 765.39 134.73C759.23 122.99 750.8 114.04 740.1 107.88H740.11ZM733.86 218.26C727.33 227.92 716.96 232.75 702.75 232.75C688.54 232.75 678.17 227.92 671.64 218.26C665.11 208.6 661.84 195.15 661.84 177.92C661.84 160.69 665.06 147.09 671.5 137.72C677.94 128.34 688.26 123.66 702.47 123.66C716.68 123.66 727.33 128.35 733.87 137.72C740.4 147.1 743.67 160.5 743.67 177.92C743.67 195.34 740.4 208.61 733.87 218.26H733.86Z" fill="#3E4252"/>
<path d="M985.26 111.29C975.69 102.86 961.34 98.65 942.22 98.65C931.99 98.65 922.19 99.93 912.81 102.49C903.43 105.05 895.15 108.22 887.95 112.01L897.61 133.89C904.24 130.67 911.15 127.92 918.35 125.65C925.55 123.38 933.03 122.24 940.79 122.24C950.07 122.24 957.27 124.56 962.38 129.2C967.49 133.84 970.05 141.75 970.05 152.92V161.44L943.91 162.29C919.66 163.05 901.62 167.45 889.79 175.5C877.95 183.55 872.03 195.44 872.03 211.16C872.03 226.88 876.58 238.77 885.67 246.25C894.76 253.73 906.22 257.47 920.05 257.47C932.93 257.47 943.01 255.53 950.31 251.65C957.6 247.77 964.56 243.32 971.19 234.98L971.54 254.64H999.6V150.94C999.6 132.95 994.81 119.74 985.25 111.31L985.26 111.29ZM969.78 194.39C969.78 207.65 965.85 217.59 957.99 224.22C950.13 230.85 940.33 234.16 928.58 234.16C921 234.16 914.85 232.36 910.11 228.76C905.37 225.16 903.01 219.38 903.01 211.43C903.01 202.53 906.37 195.52 913.1 190.41C919.82 185.3 931.9 182.36 949.33 181.6L969.79 181.03V194.38L969.78 194.39Z" fill="#3E4252"/>
<path d="M837.85 104.33H807.73V257.47H837.85V104.33Z" fill="#3E4252"/>
<path d="M822.79 80.34C832.135 80.34 839.71 72.7647 839.71 63.42C839.71 54.0753 832.135 46.5 822.79 46.5C813.445 46.5 805.87 54.0753 805.87 63.42C805.87 72.7647 813.445 80.34 822.79 80.34Z" fill="#3E4252"/>
</g>
<defs>
<clipPath id="clip0_120_78">
<rect width="999.61" height="293.33" fill="white"/>
</clipPath>
</defs>
</svg>
